# xmcd
#
# Track frame offsets:
#	150
#	10733
#	22603
#	31883
#	43535
#	54809
#	67424
#	79635
#	90846
#	101070
#	114950
#	125929
#	137943
#
# Disc length: 2034 seconds
#
# Revision: 1
# Processed by: cddbd v1.5.2PL0 Copyright (c) Steve Scherf et al.
# Submitted via: EasyCDDAExtractor 16.0.1.1
#
DISCID=9c07f00d
DTITLE=Roy Drusky - Songs Of Love And Life (American Essentials)
DYEAR=1995
DGENRE=Country
TTITLE0=Such A Fool
TTITLE1=Another
TTITLE2=Peel Me A 'Nanner
TTITLE3=Yes Mr. Peters
TTITLE4=Husbands And Wives
TTITLE5=Tip Of My Fingers
TTITLE6=If The Whole World Stopped Lovin'
TTITLE7=Make The World Go Away
TTITLE8=All My Hard Times
TTITLE9=Jody And The Kid
TTITLE10=(From Now On All My Friends Are Gonna Be) Strangers
TTITLE11=Long Long Texas Road
TTITLE12=She Thinks I Still Care
EXTD=
EXTT0=
EXTT1=
EXTT2=
EXTT3=
EXTT4=
EXTT5=
EXTT6=
EXTT7=
EXTT8=
EXTT9=
EXTT10=
EXTT11=
EXTT12=
PLAYORDER=
